FFmpeg version SVN-r25716, Copyright (c) 2000-2010 the FFmpeg developers  built on Nov 10 2010 12:23:18 with gcc 4.1.2 20080704 (Red Hat 4.1.2-48)  configuration: --enable-libmp3lame --enable-shared --disable-mmx --arch=x86_64  libavutil     50.33. 0 / 50.33. 0  libavcore      0.12. 1 /  0.12. 1  libavcodec    52.94. 4 / 52.94. 4  libavformat   52.84. 0 / 52.84. 0  libavdevice   52. 2. 2 / 52. 2. 2  libavfilter    1.59. 0 /  1.59. 0  libswscale     0.12. 0 /  0.12. 0[mov,mp4,m4a,3gp,3g2,mj2 @ 0x725d4c0] max_analyze_duration reachedInput #0, mov,mp4,m4a,3gp,3g2,mj2, from '/RAID10/data/converted_video_files/37333.mov':  Duration: 00:00:11.90, start: 0.000000, bitrate: 3170 kb/s    Stream #0.0(eng): Video: rawvideo, pal8, 320x240, 3072 kb/s, 10 fps, 10 tbr, 10 tbn, 10 tbc    Stream #0.1(eng): Data: rtp  / 0x20707472, 95 kb/s[buffer @ 0x727b8e0] w:320 h:240 pixfmt:pal8[ffsink @ 0x7280950] auto-inserting filter 'auto-inserted scaler 0' between the filter 'src' and the filter 'out'[scale @ 0x7280c40] w:320 h:240 fmt:pal8 -> w:320 h:240 fmt:yuv420p flags:0x4Output #0, flv, to '/RAID10/data/converted_video_files/37333.flv':  Metadata:    encoder         : Lavf52.84.0    Stream #0.0(eng): Video: flv, yuv420p, 320x240, q=2-31, 600 kb/s, 1k tbn, 24 tbcStream mapping:  Stream #0.0 -> #0.0Press [q] to stop encodingframe=   93 fps=  0 q=9.5 size=     547kB time=9.25 bitrate= 484.3kbits/s    frame=  119 fps=  0 q=9.6 Lsize=     688kB time=11.83 bitrate= 476.6kbits/s    video:686kB audio:0kB global headers:0kB muxing overhead 0.300763%